PathFileType	4	(X/Y/Z)	TVC_20_Cal_03_0_static_RCNL2025.trc
DataRate	CameraRate	NumFrames	NumMarkers	Units	OrigDataRate	OrigDataStartFrame	OrigNumFrames
100	100	10	27	mm	100	17	133
Frame#	Time	R_Shoulder			L_Shoulder			C7			J_Notch			R_Elbow			L_Elbow			R_Wrist			L_Wrist			R_Asis			L_Asis			R_Psis			L_Psis			Sacral			Thoracic			Sternum			R_Thigh_Lateral			R_Knee_Lateral			R_Shank_Lateral			R_Ankle_Lateral			R_Heel			R_Toe			L_Thigh_Lateral			L_Knee_Lateral			L_Shank_Lateral			L_Ankle_Lateral			L_Heel			L_Toe		
		X1	Y1	Z1	X2	Y2	Z2	X3	Y3	Z3	X4	Y4	Z4	X5	Y5	Z5	X6	Y6	Z6	X7	Y7	Z7	X8	Y8	Z8	X9	Y9	Z9	X10	Y10	Z10	X11	Y11	Z11	X12	Y12	Z12	X13	Y13	Z13	X14	Y14	Z14	X15	Y15	Z15	X16	Y16	Z16	X17	Y17	Z17	X18	Y18	Z18	X19	Y19	Z19	X20	Y20	Z20	X21	Y21	Z21	X22	Y22	Z22	X23	Y23	Z23	X24	Y24	Z24	X25	Y25	Z25	X26	Y26	Z26	X27	Y27	Z27
17	0.16000000	-225.654831	1427.000488	-40.451630	-267.349274	1432.520386	-387.532715	-272.195679	1469.884399	-195.887512	-149.574127	1342.987671	-213.363968	-243.457748	1154.462891	124.683609	-277.799713	1131.133545	-512.144775	-134.615334	923.940186	183.716087	-138.770863	915.576141	-562.180237	-192.469650	1010.312561	-60.066959	-175.935913	1018.841309	-340.769012	-339.142120	1013.819397	-162.231003	-347.155609	1007.255798	-250.796707	-343.148865	1010.537598	-206.513855	-374.291901	1238.400146	-208.883087	-134.880951	1198.968262	-217.508530	-240.968719	679.726624	3.154449	-262.281403	470.969971	-59.456161	-309.341309	312.952911	-16.096849	-316.162750	76.267654	-88.889999	-355.404724	52.565304	-143.415619	-167.706955	36.689785	-81.470970	-229.671127	654.208801	-411.578125	-241.340485	462.918243	-356.447479	-256.885010	316.646729	-397.949036	-280.035614	74.208977	-318.940521	-325.996979	62.561085	-276.825714	-138.169556	38.030201	-294.566071
18	0.17000000	-225.538208	1426.943115	-40.638775	-267.364380	1432.487549	-387.503998	-272.264618	1469.848877	-195.937042	-149.596680	1342.998291	-213.377319	-243.460281	1154.410645	124.605682	-277.818054	1131.096436	-512.134155	-134.589027	923.943970	183.661400	-138.740902	915.569000	-562.107544	-192.540695	1010.298584	-60.158031	-176.037140	1018.846863	-340.826477	-339.123505	1013.809937	-162.273544	-347.162323	1007.157227	-250.816422	-343.142914	1010.483582	-206.544983	-374.301941	1238.391968	-208.870667	-134.808548	1198.983276	-217.556335	-241.026733	679.772156	3.184964	-262.303528	470.960083	-59.451931	-309.300385	313.005585	-16.149279	-316.241150	76.273697	-88.960304	-355.428925	52.371990	-143.479874	-167.609695	36.681911	-81.674294	-229.637466	654.188721	-411.581848	-241.364182	462.920380	-356.455200	-256.921265	316.594208	-397.934509	-280.105011	74.181160	-318.976746	-325.996155	62.537659	-276.852386	-138.084412	38.000114	-294.575165
19	0.18000000	-225.603668	1427.035400	-40.477402	-267.452881	1432.511475	-387.512817	-272.345886	1469.882446	-195.899185	-149.600250	1342.983398	-213.353027	-243.508514	1154.399414	124.622299	-277.807526	1131.058350	-512.138733	-134.650581	923.878357	183.617973	-138.693619	915.579346	-562.082916	-192.545471	1010.368591	-60.171944	-176.050919	1018.846313	-340.832947	-339.110504	1013.845093	-162.322021	-347.158691	1007.287598	-250.862686	-343.134598	1010.566345	-206.592354	-374.365204	1238.452515	-208.849899	-134.875488	1199.047485	-217.660507	-241.009598	679.773071	3.177943	-262.309021	470.968414	-59.474880	-309.318054	312.989563	-16.163652	-316.171204	76.318321	-88.897430	-355.528229	52.382446	-143.404922	-167.538132	36.612461	-81.792618	-229.798645	654.104309	-411.588226	-241.371948	462.967804	-356.504852	-256.881134	316.664062	-397.991913	-280.071167	74.369362	-318.896393	-325.994598	62.534714	-276.855438	-138.107468	38.064156	-294.619080
20	0.19000000	-225.698639	1427.094849	-40.393749	-267.464935	1432.497803	-387.511780	-272.351837	1469.854126	-195.893234	-149.595352	1342.977539	-213.361755	-243.532532	1154.395264	124.521622	-277.814972	1131.093994	-512.106689	-134.630615	923.798401	183.585487	-138.735313	915.554779	-561.882690	-192.576553	1010.347046	-60.157349	-176.022217	1018.887512	-340.839539	-339.247864	1013.877563	-162.327164	-347.295410	1007.326355	-250.843384	-343.271637	1010.601959	-206.585274	-374.381775	1238.409424	-208.886581	-134.784775	1199.060669	-217.654221	-241.129715	679.754456	3.103827	-262.335205	470.983093	-59.448158	-309.347717	312.984375	-16.162415	-316.238159	76.224472	-88.707260	-355.406036	52.428238	-143.505096	-167.557922	36.651779	-81.731827	-229.753525	654.129395	-411.621521	-241.356125	462.956451	-356.497864	-256.895538	316.625488	-398.037994	-280.034576	74.222908	-318.983582	-325.979309	62.526237	-276.855682	-138.172913	38.034100	-294.545013
21	0.20000000	-225.695801	1427.013306	-40.640919	-267.500061	1432.496338	-387.551880	-272.480530	1469.909424	-195.917984	-149.562988	1343.114014	-213.343033	-243.560196	1154.333618	124.531189	-277.817993	1131.005127	-511.997589	-134.465527	923.828369	183.383789	-138.690418	915.492401	-561.825348	-192.601807	1010.363220	-60.130470	-176.120468	1018.894165	-340.879425	-339.271790	1013.819885	-162.270782	-347.312103	1007.283569	-250.836365	-343.291946	1010.551727	-206.553574	-374.435516	1238.419434	-208.895538	-134.775482	1199.201050	-217.545120	-241.171478	679.740295	3.128302	-262.364044	470.980682	-59.473698	-309.382751	313.045990	-16.114176	-316.179230	76.297798	-88.893456	-355.480560	52.347523	-143.457642	-167.702042	36.695271	-81.480156	-229.796005	654.149780	-411.599304	-241.351517	462.976959	-356.464539	-256.865845	316.698242	-398.014923	-280.158508	74.494080	-318.800201	-325.988586	62.558960	-276.856293	-138.119659	38.068150	-294.527802
22	0.21000000	-225.796265	1427.044312	-40.496464	-267.496704	1432.453857	-387.551636	-272.518402	1469.926270	-195.886749	-149.538055	1343.136353	-213.367935	-243.488678	1154.301392	124.484535	-277.811096	1130.934448	-511.997589	-134.421909	923.771942	183.270287	-138.678719	915.513458	-561.712097	-192.702744	1010.369080	-60.162132	-176.110077	1018.958435	-340.914978	-339.310852	1013.864502	-162.390717	-347.304718	1007.322083	-250.838699	-343.307785	1010.593292	-206.614708	-374.418549	1238.438232	-209.026230	-134.707886	1199.212036	-217.668869	-241.200836	679.726501	3.138452	-262.382812	470.946594	-59.472252	-309.425507	312.962250	-16.094961	-316.232361	76.309891	-88.938370	-355.240051	52.414558	-143.647873	-167.727859	36.666771	-81.477379	-229.980225	654.007568	-411.846375	-241.374832	462.972626	-356.500397	-256.897217	316.598755	-397.930573	-280.127625	74.296875	-318.830139	-325.992188	62.563496	-276.856049	-138.098434	38.092781	-294.617554
23	0.22000000	-225.747299	1427.074097	-40.597866	-267.596313	1432.492554	-387.542725	-272.553650	1469.844971	-195.955032	-149.613632	1343.161133	-213.475861	-243.560410	1154.310303	124.431366	-277.797577	1130.968384	-512.002014	-134.620522	923.765503	183.336929	-138.623627	915.444183	-561.669067	-192.720734	1010.386353	-60.178394	-176.124252	1018.946106	-340.900330	-339.322388	1013.814392	-162.377319	-347.296143	1007.276611	-250.861328	-343.309265	1010.545502	-206.619324	-374.497345	1238.396851	-208.948532	-134.693848	1199.221802	-217.631866	-241.174164	679.758606	3.155345	-262.452820	470.931305	-59.463913	-309.463806	312.972626	-16.161261	-316.163910	76.317299	-88.925209	-355.435638	52.399811	-143.490768	-167.730057	36.705547	-81.445000	-230.067932	654.203064	-411.936676	-241.403473	463.005981	-356.492096	-256.968109	316.644562	-398.040619	-280.067841	74.201797	-318.990021	-325.993225	62.586639	-276.848358	-138.158264	38.051777	-294.558655
24	0.23000000	-225.814285	1427.027832	-40.454079	-267.638947	1432.504639	-387.566681	-272.649536	1469.883667	-195.901581	-149.668991	1343.233398	-213.397949	-243.531250	1154.308472	124.386185	-277.798309	1130.974121	-511.994232	-134.470219	923.739624	183.099831	-138.645416	915.407043	-561.552643	-192.651321	1010.384033	-60.210884	-176.097366	1018.969177	-340.891418	-339.314514	1013.858521	-162.369217	-347.384827	1007.311707	-250.880676	-343.349670	1010.585114	-206.624947	-374.492767	1238.403076	-208.986572	-134.681396	1199.278076	-217.589859	-241.277527	679.826416	3.086534	-262.424225	470.924957	-59.447559	-309.436035	313.019501	-16.172646	-316.163879	76.329094	-88.873177	-355.507111	52.501659	-143.378235	-167.578827	36.641922	-81.730431	-230.081329	654.025391	-411.998138	-241.410156	462.997192	-356.521790	-256.944489	316.696625	-398.071533	-280.086853	74.428940	-318.949738	-325.992065	62.580070	-276.827423	-138.103943	38.065083	-294.540924
25	0.24000000	-225.883728	1427.153809	-40.380421	-267.633026	1432.545410	-387.568939	-272.664612	1469.937988	-195.899811	-149.694214	1343.250000	-213.337128	-243.525192	1154.307983	124.391747	-277.768341	1130.951416	-511.958740	-134.441620	923.690399	183.025795	-138.600700	915.420593	-561.428741	-192.712860	1010.421814	-60.264141	-176.094437	1018.989563	-340.912781	-339.348328	1013.911804	-162.367844	-347.402985	1007.318481	-250.923401	-343.375656	1010.615143	-206.645622	-374.549957	1238.447754	-209.053177	-134.724091	1199.350098	-217.550720	-241.280777	679.884766	3.111309	-262.434631	470.965179	-59.463734	-309.435608	313.021759	-16.181425	-316.168701	76.324394	-88.894424	-355.444153	52.374020	-143.462753	-167.545853	36.664089	-81.738861	-230.216034	654.074341	-412.141083	-241.427536	462.985870	-356.527985	-256.922150	316.719177	-398.024628	-280.164246	74.384544	-318.890076	-325.991394	62.578140	-276.825745	-138.117584	38.069683	-294.673492
26	0.25000000	-226.011978	1427.164551	-40.428776	-267.677582	1432.507935	-387.601532	-272.665436	1469.880737	-195.886261	-149.642914	1343.369263	-213.382507	-243.509232	1154.275879	124.280396	-277.861572	1130.885986	-511.861145	-134.495529	923.653229	182.947121	-138.593498	915.412689	-561.382782	-192.759094	1010.453735	-60.248714	-176.118744	1018.965393	-340.907867	-339.404083	1013.924561	-162.356094	-347.448395	1007.304688	-250.883133	-343.426239	1010.614624	-206.619614	-374.637512	1238.340332	-208.891678	-134.657562	1199.349487	-217.667282	-241.360428	679.843750	3.141597	-262.466217	470.941132	-59.471550	-309.463013	312.958618	-16.165775	-316.162445	76.297089	-88.917007	-355.419342	52.439781	-143.411789	-167.551331	36.669540	-81.752846	-230.268906	654.087158	-412.239624	-241.445526	462.972168	-356.518585	-256.920929	316.701324	-398.036438	-280.121826	74.229492	-318.778473	-325.991669	62.562569	-276.854431	-138.120468	38.036530	-294.605438
